<mxfile host="Electron" agent="Mozilla/5.0 (Macintosh; Intel Mac OS X 10_15_7) AppleWebKit/537.36 (KHTML, like Gecko) draw.io/24.7.17 Chrome/128.0.6613.36 Electron/32.0.1 Safari/537.36" version="24.7.17">
  <diagram id="TJ_tHeNy0Av9BAXaPFNa" name="BDA Opensource">
    <mxGraphModel dx="3" dy="2925" grid="1" gridSize="10" guides="1" tooltips="1" connect="1" arrows="1" fold="1" page="1" pageScale="1" pageWidth="827" pageHeight="1169" math="0" shadow="0">
      <root>
        <mxCell id="0" />
        <mxCell id="1" parent="0" />
        <mxCell id="dy7va6s2zH5D3kZ9BrSx-1" value="" style="rounded=1;whiteSpace=wrap;html=1;movable=0;resizable=0;rotatable=0;deletable=0;editable=0;locked=1;connectable=0;fillColor=#ffe6cc;strokeColor=#d79b00;" parent="1" vertex="1">
          <mxGeometry x="3110" y="-80" width="2180" height="760" as="geometry" />
        </mxCell>
        <mxCell id="dy7va6s2zH5D3kZ9BrSx-56" value="&lt;font style=&quot;font-size: 35px;&quot;&gt;&lt;b&gt;IDP invoices automation using Amazon Bedrock Data Automation&amp;nbsp;&lt;/b&gt;&lt;/font&gt;" style="text;html=1;align=center;verticalAlign=middle;whiteSpace=wrap;rounded=0;" parent="1" vertex="1">
          <mxGeometry x="3420" y="-60" width="1140" height="40" as="geometry" />
        </mxCell>
        <mxCell id="dy7va6s2zH5D3kZ9BrSx-97" value="us-west-2" style="points=[[0,0],[0.25,0],[0.5,0],[0.75,0],[1,0],[1,0.25],[1,0.5],[1,0.75],[1,1],[0.75,1],[0.5,1],[0.25,1],[0,1],[0,0.75],[0,0.5],[0,0.25]];outlineConnect=0;html=1;whiteSpace=wrap;fontSize=12;fontStyle=0;container=0;pointerEvents=0;collapsible=0;recursiveResize=0;shape=mxgraph.aws4.group;grIcon=mxgraph.aws4.group_region;verticalAlign=top;align=left;spacingLeft=30;dashed=1;fillColor=none;strokeColor=#36393d;" parent="1" vertex="1">
          <mxGeometry x="3180" y="-14.5" width="2050" height="634.5" as="geometry" />
        </mxCell>
        <mxCell id="dy7va6s2zH5D3kZ9BrSx-98" value="InputBucket&lt;div&gt;invoices/&lt;/div&gt;" style="sketch=0;points=[[0,0,0],[0.25,0,0],[0.5,0,0],[0.75,0,0],[1,0,0],[0,1,0],[0.25,1,0],[0.5,1,0],[0.75,1,0],[1,1,0],[0,0.25,0],[0,0.5,0],[0,0.75,0],[1,0.25,0],[1,0.5,0],[1,0.75,0]];outlineConnect=0;fontColor=#232F3E;fillColor=#7AA116;strokeColor=#ffffff;dashed=0;verticalLabelPosition=bottom;verticalAlign=top;align=center;html=1;fontSize=12;fontStyle=0;aspect=fixed;shape=mxgraph.aws4.resourceIcon;resIcon=mxgraph.aws4.s3;" parent="1" vertex="1">
          <mxGeometry x="3280" y="261" width="78" height="78" as="geometry" />
        </mxCell>
        <mxCell id="dy7va6s2zH5D3kZ9BrSx-99" style="edgeStyle=orthogonalEdgeStyle;rounded=0;orthogonalLoop=1;jettySize=auto;html=1;" parent="1" source="dy7va6s2zH5D3kZ9BrSx-98" target="dy7va6s2zH5D3kZ9BrSx-101" edge="1">
          <mxGeometry relative="1" as="geometry" />
        </mxCell>
        <mxCell id="dy7va6s2zH5D3kZ9BrSx-100" value="trigger lambda" style="edgeLabel;html=1;align=center;verticalAlign=middle;resizable=0;points=[];" parent="dy7va6s2zH5D3kZ9BrSx-99" vertex="1" connectable="0">
          <mxGeometry x="-0.0986" y="3" relative="1" as="geometry">
            <mxPoint as="offset" />
          </mxGeometry>
        </mxCell>
        <mxCell id="dy7va6s2zH5D3kZ9BrSx-101" value="&lt;div&gt;process_input_files&lt;/div&gt;&lt;div&gt;&lt;br&gt;&lt;/div&gt;" style="outlineConnect=0;dashed=0;verticalLabelPosition=bottom;verticalAlign=top;align=center;html=1;shape=mxgraph.aws3.lambda_function;fillColor=#F58534;gradientColor=none;" parent="1" vertex="1">
          <mxGeometry x="3500" y="261" width="69" height="72" as="geometry" />
        </mxCell>
        <mxCell id="dy7va6s2zH5D3kZ9BrSx-104" style="edgeStyle=orthogonalEdgeStyle;rounded=0;orthogonalLoop=1;jettySize=auto;html=1;exitX=1;exitY=0.5;exitDx=0;exitDy=0;exitPerimeter=0;" parent="1" source="dy7va6s2zH5D3kZ9BrSx-116" target="dy7va6s2zH5D3kZ9BrSx-107" edge="1">
          <mxGeometry relative="1" as="geometry">
            <mxPoint x="3868" y="297" as="sourcePoint" />
          </mxGeometry>
        </mxCell>
        <mxCell id="dy7va6s2zH5D3kZ9BrSx-105" value="Invoke&lt;div&gt;Lambda&lt;/div&gt;" style="edgeLabel;html=1;align=center;verticalAlign=middle;resizable=0;points=[];" parent="1" vertex="1" connectable="0">
          <mxGeometry x="3915.996923076923" y="300" as="geometry" />
        </mxCell>
        <mxCell id="_fz7pSh8EMBGrMCIdHI7-11" value="" style="edgeStyle=orthogonalEdgeStyle;rounded=0;orthogonalLoop=1;jettySize=auto;html=1;" parent="1" source="dy7va6s2zH5D3kZ9BrSx-107" target="_fz7pSh8EMBGrMCIdHI7-10" edge="1">
          <mxGeometry relative="1" as="geometry" />
        </mxCell>
        <mxCell id="_fz7pSh8EMBGrMCIdHI7-14" value="get&amp;nbsp;&lt;div&gt;invoices blueprint ARN&lt;/div&gt;" style="edgeLabel;html=1;align=center;verticalAlign=middle;resizable=0;points=[];" parent="_fz7pSh8EMBGrMCIdHI7-11" vertex="1" connectable="0">
          <mxGeometry x="0.541" y="2" relative="1" as="geometry">
            <mxPoint as="offset" />
          </mxGeometry>
        </mxCell>
        <mxCell id="dy7va6s2zH5D3kZ9BrSx-107" value="&lt;div&gt;process_invoices_bda&lt;/div&gt;&lt;div&gt;Lambda&lt;/div&gt;" style="outlineConnect=0;dashed=0;verticalLabelPosition=bottom;verticalAlign=top;align=center;html=1;shape=mxgraph.aws3.lambda_function;fillColor=#F58534;gradientColor=none;" parent="1" vertex="1">
          <mxGeometry x="3975.92" y="264" width="69" height="72" as="geometry" />
        </mxCell>
        <mxCell id="dy7va6s2zH5D3kZ9BrSx-110" value="OutputBucket&lt;div&gt;/bda_json/invoices/Invoice 1.png.json&lt;br&gt;&lt;div&gt;/bda_bbox_img/invoices/Invoice 1.png&lt;/div&gt;&lt;/div&gt;" style="sketch=0;points=[[0,0,0],[0.25,0,0],[0.5,0,0],[0.75,0,0],[1,0,0],[0,1,0],[0.25,1,0],[0.5,1,0],[0.75,1,0],[1,1,0],[0,0.25,0],[0,0.5,0],[0,0.75,0],[1,0.25,0],[1,0.5,0],[1,0.75,0]];outlineConnect=0;fontColor=#232F3E;fillColor=#7AA116;strokeColor=#ffffff;dashed=0;verticalLabelPosition=bottom;verticalAlign=top;align=center;html=1;fontSize=12;fontStyle=0;aspect=fixed;shape=mxgraph.aws4.resourceIcon;resIcon=mxgraph.aws4.s3;" parent="1" vertex="1">
          <mxGeometry x="5070" y="453" width="78" height="78" as="geometry" />
        </mxCell>
        <mxCell id="dy7va6s2zH5D3kZ9BrSx-113" style="edgeStyle=orthogonalEdgeStyle;rounded=0;orthogonalLoop=1;jettySize=auto;html=1;" parent="1" source="dy7va6s2zH5D3kZ9BrSx-107" target="_fz7pSh8EMBGrMCIdHI7-15" edge="1">
          <mxGeometry relative="1" as="geometry">
            <mxPoint x="4383" y="492" as="targetPoint" />
            <Array as="points">
              <mxPoint x="4190" y="300" />
              <mxPoint x="4190" y="485" />
              <mxPoint x="4410" y="485" />
              <mxPoint x="4410" y="492" />
            </Array>
          </mxGeometry>
        </mxCell>
        <mxCell id="dy7va6s2zH5D3kZ9BrSx-114" value="invoke data automaton&amp;nbsp;&lt;div&gt;async job&amp;nbsp;&lt;br&gt;&lt;/div&gt;" style="edgeLabel;html=1;align=center;verticalAlign=middle;resizable=0;points=[];" parent="dy7va6s2zH5D3kZ9BrSx-113" vertex="1" connectable="0">
          <mxGeometry x="0.4026" y="2" relative="1" as="geometry">
            <mxPoint x="58" as="offset" />
          </mxGeometry>
        </mxCell>
        <mxCell id="dy7va6s2zH5D3kZ9BrSx-115" value="" style="edgeStyle=orthogonalEdgeStyle;rounded=0;orthogonalLoop=1;jettySize=auto;html=1;" parent="1" source="dy7va6s2zH5D3kZ9BrSx-116" target="dy7va6s2zH5D3kZ9BrSx-119" edge="1">
          <mxGeometry relative="1" as="geometry" />
        </mxCell>
        <mxCell id="dy7va6s2zH5D3kZ9BrSx-116" value="InvoicesBDA&lt;div&gt;&amp;nbsp;Queue&lt;/div&gt;" style="sketch=0;points=[[0,0,0],[0.25,0,0],[0.5,0,0],[0.75,0,0],[1,0,0],[0,1,0],[0.25,1,0],[0.5,1,0],[0.75,1,0],[1,1,0],[0,0.25,0],[0,0.5,0],[0,0.75,0],[1,0.25,0],[1,0.5,0],[1,0.75,0]];outlineConnect=0;fontColor=#232F3E;fillColor=#E7157B;strokeColor=#ffffff;dashed=0;verticalLabelPosition=bottom;verticalAlign=top;align=center;html=1;fontSize=12;fontStyle=0;aspect=fixed;shape=mxgraph.aws4.resourceIcon;resIcon=mxgraph.aws4.sqs;" parent="1" vertex="1">
          <mxGeometry x="3698" y="258" width="78" height="78" as="geometry" />
        </mxCell>
        <mxCell id="dy7va6s2zH5D3kZ9BrSx-117" style="edgeStyle=orthogonalEdgeStyle;rounded=0;orthogonalLoop=1;jettySize=auto;html=1;entryX=0;entryY=0.5;entryDx=0;entryDy=0;entryPerimeter=0;" parent="1" source="dy7va6s2zH5D3kZ9BrSx-107" target="_fz7pSh8EMBGrMCIdHI7-13" edge="1">
          <mxGeometry relative="1" as="geometry">
            <mxPoint x="4345" y="155" as="targetPoint" />
            <Array as="points">
              <mxPoint x="4190" y="300" />
              <mxPoint x="4190" y="99" />
            </Array>
          </mxGeometry>
        </mxCell>
        <mxCell id="dy7va6s2zH5D3kZ9BrSx-118" value="Convert PDF to PNG&amp;nbsp;&lt;div&gt;and save to&amp;nbsp;&lt;/div&gt;&lt;div&gt;staging bucket&lt;/div&gt;" style="edgeLabel;html=1;align=center;verticalAlign=middle;resizable=0;points=[];" parent="dy7va6s2zH5D3kZ9BrSx-117" vertex="1" connectable="0">
          <mxGeometry x="0.6212" relative="1" as="geometry">
            <mxPoint x="11" as="offset" />
          </mxGeometry>
        </mxCell>
        <mxCell id="dy7va6s2zH5D3kZ9BrSx-119" value="DLQ" style="sketch=0;points=[[0,0,0],[0.25,0,0],[0.5,0,0],[0.75,0,0],[1,0,0],[0,1,0],[0.25,1,0],[0.5,1,0],[0.75,1,0],[1,1,0],[0,0.25,0],[0,0.5,0],[0,0.75,0],[1,0.25,0],[1,0.5,0],[1,0.75,0]];outlineConnect=0;fontColor=#232F3E;fillColor=#E7157B;strokeColor=#ffffff;dashed=0;verticalLabelPosition=bottom;verticalAlign=top;align=center;html=1;fontSize=12;fontStyle=0;aspect=fixed;shape=mxgraph.aws4.resourceIcon;resIcon=mxgraph.aws4.sqs;" parent="1" vertex="1">
          <mxGeometry x="3698" y="123" width="78" height="78" as="geometry" />
        </mxCell>
        <mxCell id="dy7va6s2zH5D3kZ9BrSx-120" style="edgeStyle=orthogonalEdgeStyle;rounded=0;orthogonalLoop=1;jettySize=auto;html=1;entryX=0;entryY=0.5;entryDx=0;entryDy=0;entryPerimeter=0;" parent="1" source="dy7va6s2zH5D3kZ9BrSx-101" target="dy7va6s2zH5D3kZ9BrSx-116" edge="1">
          <mxGeometry relative="1" as="geometry" />
        </mxCell>
        <mxCell id="_fz7pSh8EMBGrMCIdHI7-10" value="Store Parameter&lt;div&gt;/my-demo/invoices_blueprint&lt;/div&gt;" style="outlineConnect=0;dashed=0;verticalLabelPosition=bottom;verticalAlign=top;align=center;html=1;shape=mxgraph.aws3.parameter_store;fillColor=#759C3E;gradientColor=none;" parent="1" vertex="1">
          <mxGeometry x="4383" y="249" width="75" height="102" as="geometry" />
        </mxCell>
        <mxCell id="_fz7pSh8EMBGrMCIdHI7-13" value="StaggingBucket&lt;div&gt;invoices/&lt;/div&gt;" style="sketch=0;points=[[0,0,0],[0.25,0,0],[0.5,0,0],[0.75,0,0],[1,0,0],[0,1,0],[0.25,1,0],[0.5,1,0],[0.75,1,0],[1,1,0],[0,0.25,0],[0,0.5,0],[0,0.75,0],[1,0.25,0],[1,0.5,0],[1,0.75,0]];outlineConnect=0;fontColor=#232F3E;fillColor=#7AA116;strokeColor=#ffffff;dashed=0;verticalLabelPosition=bottom;verticalAlign=top;align=center;html=1;fontSize=12;fontStyle=0;aspect=fixed;shape=mxgraph.aws4.resourceIcon;resIcon=mxgraph.aws4.s3;" parent="1" vertex="1">
          <mxGeometry x="4380" y="60" width="78" height="78" as="geometry" />
        </mxCell>
        <mxCell id="_fz7pSh8EMBGrMCIdHI7-17" style="edgeStyle=orthogonalEdgeStyle;rounded=0;orthogonalLoop=1;jettySize=auto;html=1;" parent="1" source="_fz7pSh8EMBGrMCIdHI7-15" target="_fz7pSh8EMBGrMCIdHI7-16" edge="1">
          <mxGeometry relative="1" as="geometry" />
        </mxCell>
        <mxCell id="RIAgYYgJRwNmPpUZW0tK-1" value="Emits Event&lt;div&gt;after successful&amp;nbsp;&lt;/div&gt;&lt;div&gt;job completion&lt;/div&gt;" style="edgeLabel;html=1;align=center;verticalAlign=middle;resizable=0;points=[];" parent="_fz7pSh8EMBGrMCIdHI7-17" vertex="1" connectable="0">
          <mxGeometry x="-0.1683" y="1" relative="1" as="geometry">
            <mxPoint x="-1" as="offset" />
          </mxGeometry>
        </mxCell>
        <mxCell id="_fz7pSh8EMBGrMCIdHI7-15" value="Amazon Bedrock&lt;div&gt;Data Automation&lt;/div&gt;" style="sketch=0;points=[[0,0,0],[0.25,0,0],[0.5,0,0],[0.75,0,0],[1,0,0],[0,1,0],[0.25,1,0],[0.5,1,0],[0.75,1,0],[1,1,0],[0,0.25,0],[0,0.5,0],[0,0.75,0],[1,0.25,0],[1,0.5,0],[1,0.75,0]];outlineConnect=0;fontColor=#232F3E;fillColor=#01A88D;strokeColor=#ffffff;dashed=0;verticalLabelPosition=bottom;verticalAlign=top;align=center;html=1;fontSize=12;fontStyle=0;aspect=fixed;shape=mxgraph.aws4.resourceIcon;resIcon=mxgraph.aws4.bedrock;" parent="1" vertex="1">
          <mxGeometry x="4383" y="453" width="78" height="78" as="geometry" />
        </mxCell>
        <mxCell id="_fz7pSh8EMBGrMCIdHI7-21" value="" style="edgeStyle=orthogonalEdgeStyle;rounded=0;orthogonalLoop=1;jettySize=auto;html=1;" parent="1" source="_fz7pSh8EMBGrMCIdHI7-16" target="_fz7pSh8EMBGrMCIdHI7-19" edge="1">
          <mxGeometry relative="1" as="geometry" />
        </mxCell>
        <mxCell id="_fz7pSh8EMBGrMCIdHI7-16" value="Event Bridge" style="sketch=0;points=[[0,0,0],[0.25,0,0],[0.5,0,0],[0.75,0,0],[1,0,0],[0,1,0],[0.25,1,0],[0.5,1,0],[0.75,1,0],[1,1,0],[0,0.25,0],[0,0.5,0],[0,0.75,0],[1,0.25,0],[1,0.5,0],[1,0.75,0]];outlineConnect=0;fontColor=#232F3E;fillColor=#E7157B;strokeColor=#ffffff;dashed=0;verticalLabelPosition=bottom;verticalAlign=top;align=center;html=1;fontSize=12;fontStyle=0;aspect=fixed;shape=mxgraph.aws4.resourceIcon;resIcon=mxgraph.aws4.eventbridge;" parent="1" vertex="1">
          <mxGeometry x="4600" y="452" width="78" height="78" as="geometry" />
        </mxCell>
        <mxCell id="_fz7pSh8EMBGrMCIdHI7-23" value="" style="edgeStyle=orthogonalEdgeStyle;rounded=0;orthogonalLoop=1;jettySize=auto;html=1;" parent="1" source="_fz7pSh8EMBGrMCIdHI7-18" target="dy7va6s2zH5D3kZ9BrSx-110" edge="1">
          <mxGeometry relative="1" as="geometry" />
        </mxCell>
        <mxCell id="_fz7pSh8EMBGrMCIdHI7-18" value="&lt;div&gt;draw_bboxes_invoices&lt;/div&gt;&lt;div&gt;Lambda&lt;/div&gt;" style="outlineConnect=0;dashed=0;verticalLabelPosition=bottom;verticalAlign=top;align=center;html=1;shape=mxgraph.aws3.lambda_function;fillColor=#F58534;gradientColor=none;" parent="1" vertex="1">
          <mxGeometry x="4893" y="455" width="69" height="72" as="geometry" />
        </mxCell>
        <mxCell id="_fz7pSh8EMBGrMCIdHI7-20" value="" style="edgeStyle=orthogonalEdgeStyle;rounded=0;orthogonalLoop=1;jettySize=auto;html=1;" parent="1" source="_fz7pSh8EMBGrMCIdHI7-19" target="_fz7pSh8EMBGrMCIdHI7-18" edge="1">
          <mxGeometry relative="1" as="geometry" />
        </mxCell>
        <mxCell id="_fz7pSh8EMBGrMCIdHI7-19" value="&lt;div&gt;Job completion Rule&lt;/div&gt;" style="sketch=0;outlineConnect=0;fontColor=#232F3E;gradientColor=none;fillColor=#E7157B;strokeColor=none;dashed=0;verticalLabelPosition=bottom;verticalAlign=top;align=center;html=1;fontSize=12;fontStyle=0;aspect=fixed;pointerEvents=1;shape=mxgraph.aws4.rule_3;" parent="1" vertex="1">
          <mxGeometry x="4750" y="457" width="78" height="68" as="geometry" />
        </mxCell>
        <mxCell id="_fz7pSh8EMBGrMCIdHI7-24" value="" style="rounded=1;whiteSpace=wrap;html=1;fillColor=#fff2cc;strokeColor=#d6b656;" parent="1" vertex="1">
          <mxGeometry x="2530" y="70" width="510" height="331" as="geometry" />
        </mxCell>
        <mxCell id="_fz7pSh8EMBGrMCIdHI7-2" value="Create Custom Blueprint&amp;nbsp;" style="edgeStyle=orthogonalEdgeStyle;rounded=0;orthogonalLoop=1;jettySize=auto;html=1;" parent="1" source="_fz7pSh8EMBGrMCIdHI7-3" target="_fz7pSh8EMBGrMCIdHI7-4" edge="1">
          <mxGeometry relative="1" as="geometry" />
        </mxCell>
        <mxCell id="_fz7pSh8EMBGrMCIdHI7-6" style="edgeStyle=orthogonalEdgeStyle;rounded=0;orthogonalLoop=1;jettySize=auto;html=1;" parent="1" source="_fz7pSh8EMBGrMCIdHI7-3" target="_fz7pSh8EMBGrMCIdHI7-5" edge="1">
          <mxGeometry relative="1" as="geometry" />
        </mxCell>
        <mxCell id="_fz7pSh8EMBGrMCIdHI7-9" value="Store blueprint arn&lt;div&gt;in ssm&lt;/div&gt;" style="edgeLabel;html=1;align=center;verticalAlign=middle;resizable=0;points=[];" parent="_fz7pSh8EMBGrMCIdHI7-6" vertex="1" connectable="0">
          <mxGeometry x="-0.3838" y="3" relative="1" as="geometry">
            <mxPoint x="26" y="3" as="offset" />
          </mxGeometry>
        </mxCell>
        <mxCell id="_fz7pSh8EMBGrMCIdHI7-3" value="&lt;div&gt;create_blueprint_cr&lt;/div&gt;&lt;div&gt;Custom resource Lambda&lt;/div&gt;" style="outlineConnect=0;dashed=0;verticalLabelPosition=bottom;verticalAlign=top;align=center;html=1;shape=mxgraph.aws3.lambda_function;fillColor=#F58534;gradientColor=none;" parent="1" vertex="1">
          <mxGeometry x="2639.5" y="229.5" width="69" height="72" as="geometry" />
        </mxCell>
        <mxCell id="_fz7pSh8EMBGrMCIdHI7-4" value="invoices_blueprint.json" style="rounded=1;whiteSpace=wrap;html=1;fillColor=#d5e8d4;strokeColor=#82b366;" parent="1" vertex="1">
          <mxGeometry x="2600" y="156.5" width="148" height="30" as="geometry" />
        </mxCell>
        <mxCell id="_fz7pSh8EMBGrMCIdHI7-5" value="Store Parameter&lt;div&gt;/my-demo/invoices_blueprint&lt;/div&gt;" style="outlineConnect=0;dashed=0;verticalLabelPosition=bottom;verticalAlign=top;align=center;html=1;shape=mxgraph.aws3.parameter_store;fillColor=#759C3E;gradientColor=none;" parent="1" vertex="1">
          <mxGeometry x="2856" y="214.5" width="75" height="102" as="geometry" />
        </mxCell>
        <mxCell id="_fz7pSh8EMBGrMCIdHI7-25" value="&lt;span style=&quot;font-size: 35px;&quot;&gt;&lt;b&gt;CDK Custom Resource&lt;/b&gt;&lt;/span&gt;" style="text;html=1;align=center;verticalAlign=middle;whiteSpace=wrap;rounded=0;" parent="1" vertex="1">
          <mxGeometry x="2570" y="80" width="450" height="40" as="geometry" />
        </mxCell>
        <mxCell id="_fz7pSh8EMBGrMCIdHI7-26" value="us-west-2" style="points=[[0,0],[0.25,0],[0.5,0],[0.75,0],[1,0],[1,0.25],[1,0.5],[1,0.75],[1,1],[0.75,1],[0.5,1],[0.25,1],[0,1],[0,0.75],[0,0.5],[0,0.25]];outlineConnect=0;html=1;whiteSpace=wrap;fontSize=12;fontStyle=0;container=0;pointerEvents=0;collapsible=0;recursiveResize=0;shape=mxgraph.aws4.group;grIcon=mxgraph.aws4.group_region;verticalAlign=top;align=left;spacingLeft=30;dashed=1;fillColor=none;strokeColor=#36393d;" parent="1" vertex="1">
          <mxGeometry x="2550" y="130" width="460" height="240" as="geometry" />
        </mxCell>
      </root>
    </mxGraphModel>
  </diagram>
</mxfile>
